<svg xmlns="http://www.w3.org/2000/svg" xmlns:xlink="http://www.w3.org/1999/xlink" version="1.1" width="256" height="256" viewBox="0 0 256 256" xml:space="preserve">

<defs>
</defs>
<g style="stroke: none; stroke-width: 0; stroke-dasharray: none; stroke-linecap: butt; stroke-linejoin: miter; stroke-miterlimit: 10; fill: none; fill-rule: nonzero; opacity: 1;" transform="translate(1.4065934065934016 1.4065934065934016) scale(2.81 2.81)" >
	<path d="M 2.571 30 l 84.859 0 C 81.254 12.534 64.611 0.015 45.034 0 l -0.068 0 C 25.389 0.015 8.745 12.534 2.571 30 z" style="stroke: none; stroke-width: 1; stroke-dasharray: none; stroke-linecap: butt; stroke-linejoin: miter; stroke-miterlimit: 10; fill: rgb(243,244,245); fill-rule: nonzero; opacity: 1;" transform=" matrix(1 0 0 1 0 0) " stroke-linecap="round" />
	<path d="M 87.429 60 L 2.571 60 C 8.75 77.476 25.408 90 45 90 S 81.25 77.476 87.429 60 z" style="stroke: none; stroke-width: 1; stroke-dasharray: none; stroke-linecap: butt; stroke-linejoin: miter; stroke-miterlimit: 10; fill: rgb(238,28,37); fill-rule: nonzero; opacity: 1;" transform=" matrix(1 0 0 1 0 0) " stroke-linecap="round" />
	<path d="M 87.429 60 C 89.088 55.307 90 50.261 90 45 c 0 -5.261 -0.912 -10.307 -2.571 -15 L 2.571 30 C 0.911 34.693 0 39.739 0 45 c 0 5.261 0.912 10.308 2.571 15 L 87.429 60 z" style="stroke: none; stroke-width: 1; stroke-dasharray: none; stroke-linecap: butt; stroke-linejoin: miter; stroke-miterlimit: 10; fill: rgb(11,78,162); fill-rule: nonzero; opacity: 1;" transform=" matrix(1 0 0 1 0 0) " stroke-linecap="round" />
	<polygon points="48.93,35.33 48.93,35.33 48.93,35.33 " style="stroke: none; stroke-width: 1; stroke-dasharray: none; stroke-linecap: butt; stroke-linejoin: miter; stroke-miterlimit: 10; fill: rgb(243,244,245); fill-rule: nonzero; opacity: 1;" transform="  matrix(1 0 0 1 0 0) "/>
	<polygon points="41.06,35.33 41.06,35.33 41.06,35.33 " style="stroke: none; stroke-width: 1; stroke-dasharray: none; stroke-linecap: butt; stroke-linejoin: miter; stroke-miterlimit: 10; fill: rgb(243,244,245); fill-rule: nonzero; opacity: 1;" transform="  matrix(1 0 0 1 0 0) "/>
	<polygon points="41.77,32.5 41.77,32.5 41.77,32.5 " style="stroke: none; stroke-width: 1; stroke-dasharray: none; stroke-linecap: butt; stroke-linejoin: miter; stroke-miterlimit: 10; fill: rgb(243,244,245); fill-rule: nonzero; opacity: 1;" transform="  matrix(1 0 0 1 0 0) "/>
	<path d="M 35 72.5 c -9.046 -4.357 -21.985 -13.005 -21.985 -30.112 c 0 -17.108 0.818 -24.888 0.818 -24.888 h 42.334 c 0 0 0.818 7.78 0.818 24.888 C 56.985 59.495 44.046 68.143 35 72.5 L 35 72.5 z" style="stroke: none; stroke-width: 1; stroke-dasharray: none; stroke-linecap: butt; stroke-linejoin: miter; stroke-miterlimit: 10; fill: rgb(255,255,255); fill-rule: nonzero; opacity: 1;" transform=" matrix(1 0 0 1 0 0) " stroke-linecap="round" />
	<path d="M 35 70.229 c -8.299 -3.997 -20.17 -11.931 -20.17 -27.626 c 0 -15.695 0.751 -22.833 0.751 -22.833 h 38.838 c 0 0 0.751 7.138 0.751 22.833 S 43.299 66.232 35 70.229 z" style="stroke: none; stroke-width: 1; stroke-dasharray: none; stroke-linecap: butt; stroke-linejoin: miter; stroke-miterlimit: 10; fill: rgb(238,28,37); fill-rule: nonzero; opacity: 1;" transform=" matrix(1 0 0 1 0 0) " stroke-linecap="round" />
	<path d="M 36.775 38.488 c 2.247 0.036 6.631 0.124 10.535 -1.182 c 0 0 -0.103 1.397 -0.103 3.024 c 0 1.628 0.103 3.025 0.103 3.025 c -3.581 -1.198 -8.003 -1.223 -10.535 -1.191 v 8.669 h -3.55 v -8.669 c -2.532 -0.032 -6.954 -0.007 -10.535 1.191 c 0 0 0.103 -1.397 0.103 -3.025 c 0 -1.627 -0.103 -3.024 -0.103 -3.024 c 3.904 1.306 8.288 1.218 10.535 1.182 v -5.444 c -2.048 -0.018 -4.999 0.079 -8.336 1.196 c 0 0 0.103 -1.397 0.103 -3.025 c 0 -1.627 -0.103 -3.024 -0.103 -3.024 c 3.332 1.115 6.28 1.214 8.327 1.197 c -0.105 -3.448 -1.11 -7.793 -1.11 -7.793 s 2.067 0.161 2.893 0.161 c 0.827 0 2.894 -0.161 2.894 -0.161 s -1.004 4.345 -1.109 7.793 c 2.048 0.018 4.995 -0.082 8.327 -1.197 c 0 0 -0.103 1.397 -0.103 3.024 c 0 1.627 0.103 3.024 0.103 3.024 c -3.337 -1.117 -6.288 -1.214 -8.336 -1.196 L 36.775 38.488 L 36.775 38.488 z" style="stroke: none; stroke-width: 1; stroke-dasharray: none; stroke-linecap: butt; stroke-linejoin: miter; stroke-miterlimit: 10; fill: rgb(255,255,255); fill-rule: nonzero; opacity: 1;" transform=" matrix(1 0 0 1 0 0) " stroke-linecap="round" />
	<path d="M 34.999 49.893 c -4.179 0 -6.418 5.798 -6.418 5.798 s -1.242 -2.749 -4.652 -2.749 c -2.307 0 -4.007 2.052 -5.088 3.953 c 4.197 6.678 10.894 10.799 16.157 13.335 c 5.264 -2.536 11.965 -6.656 16.163 -13.335 c -1.081 -1.9 -2.781 -3.953 -5.088 -3.953 c -3.41 0 -4.657 2.749 -4.657 2.749 S 39.178 49.893 34.999 49.893 z" style="stroke: none; stroke-width: 1; stroke-dasharray: none; stroke-linecap: butt; stroke-linejoin: miter; stroke-miterlimit: 10; fill: rgb(11,78,162); fill-rule: nonzero; opacity: 1;" transform=" matrix(1 0 0 1 0 0) " stroke-linecap="round" />
</g>
</svg>